<svg data-v-423bf9ae="" xmlns="http://www.w3.org/2000/svg" viewBox="0 0 211.63534360242247 60" class="font"><!----><!----><!----><g data-v-423bf9ae="" id="66fa8b03-b2a5-40da-8c9e-52adf14ec967" fill="black" transform="matrix(5.639098067841383,0,0,5.639098067841383,-0.6203004667680432,-0.5639101951666596)"><path d="M2.11 2.01L2.11 4.29L2.11 4.29Q2.63 3.67 3.18 3.39L3.18 3.39L3.18 3.39Q3.73 3.11 4.31 3.11L4.31 3.11L4.31 3.11Q5.67 3.11 6.48 4.09L6.48 4.09L6.48 4.09Q7.28 5.06 7.28 6.64L7.28 6.64L7.28 6.64Q7.28 8.35 6.21 9.57L6.21 9.57L6.21 9.57Q5.68 10.15 5.04 10.44L5.04 10.44L5.04 10.44Q4.40 10.74 3.61 10.74L3.61 10.74L3.61 10.74Q2.91 10.74 2.34 10.63L2.34 10.63L2.34 10.63Q1.78 10.53 1.10 10.53L1.10 10.53L0.91 10.53L0.64 10.60L1.00 10.06L1.00 10.06Q1.00 9.63 1.04 8.96L1.04 8.96L1.04 8.96Q1.07 8.29 1.07 8.05L1.07 8.05L1.07 3.31L1.01 0.95L0.11 0.81L0.11 0.45L1.00 0.32L1.00 0.32Q1.32 0.26 1.88 0.10L1.88 0.10L2.13 0.10L2.11 2.01ZM2.12 6.04L2.12 6.04L2.12 9.63L2.12 9.63Q2.29 9.76 2.82 9.97L2.82 9.97L2.82 9.97Q3.32 10.15 4.00 10.15L4.00 10.15L4.00 10.15Q4.91 10.15 5.53 9.25L5.53 9.25L5.53 9.25Q6.15 8.34 6.15 6.99L6.15 6.99L6.15 6.99Q6.15 5.60 5.55 4.78L5.55 4.78L5.55 4.78Q4.94 3.97 3.84 3.97L3.84 3.97L3.84 3.97Q3.04 3.97 2.58 4.53L2.58 4.53L2.58 4.53Q2.12 5.09 2.12 6.04ZM12.46 6.64L12.46 6.64L11.77 6.61L11.77 6.61Q11.10 6.61 10.53 6.79L10.53 6.79L10.53 6.79Q9.95 6.96 9.52 7.24L9.52 7.24L9.52 7.24Q9.13 7.53 8.92 7.87L8.92 7.87L8.92 7.87Q8.72 8.21 8.72 8.65L8.72 8.65L8.72 8.65Q8.72 9.13 9.06 9.51L9.06 9.51L9.06 9.51Q9.42 9.88 10.01 9.88L10.01 9.88L10.01 9.88Q11.14 9.88 11.77 9.00L11.77 9.00L11.77 9.00Q12.09 8.54 12.28 7.95L12.28 7.95L12.28 7.95Q12.46 7.35 12.46 6.64ZM12.45 8.79L12.45 8.79L12.45 8.79Q11.82 10.00 11.12 10.37L11.12 10.37L11.12 10.37Q10.41 10.74 9.77 10.74L9.77 10.74L9.77 10.74Q8.79 10.74 8.19 10.15L8.19 10.15L8.19 10.15Q7.59 9.57 7.59 8.78L7.59 8.78L7.59 8.78Q7.59 7.64 8.79 6.84L8.79 6.84L8.79 6.84Q10.00 6.04 11.89 6.04L11.89 6.04L12.52 6.04L12.52 5.58L12.52 5.58Q12.52 4.60 12.12 4.19L12.12 4.19L12.12 4.19Q11.72 3.77 10.89 3.77L10.89 3.77L10.89 3.77Q10.22 3.77 9.62 3.99L9.62 3.99L8.98 4.24L9.02 4.98L8.73 5.08L8.11 3.67L8.11 3.67Q8.41 3.54 9.10 3.32L9.10 3.32L9.10 3.32Q9.79 3.11 11.06 3.11L11.06 3.11L11.06 3.11Q12.09 3.11 12.77 3.61L12.77 3.61L12.77 3.61Q13.44 4.11 13.44 4.96L13.44 4.96L13.44 8.22L13.44 8.22Q13.44 9.01 13.51 9.44L13.51 9.44L13.51 9.44Q13.58 9.70 13.65 9.85L13.65 9.85L13.65 9.85Q13.69 9.94 13.81 10.06L13.81 10.06L14.36 10.22L14.36 10.58L13.63 10.56L13.23 10.54L13.23 10.54Q13.11 10.54 12.99 10.54L12.99 10.54L12.99 10.54Q12.88 10.54 12.73 10.57L12.73 10.57L12.73 10.57Q12.61 10.57 12.53 10.04L12.53 10.04L12.53 10.04Q12.51 9.78 12.50 9.64L12.50 9.64L12.50 9.64Q12.45 9.11 12.45 8.79ZM21.80 5.33L21.80 7.82L21.88 10.07L22.71 10.22L22.71 10.57L21.27 10.53L20.72 10.57L20.72 10.22L20.74 10.07L20.74 6.04L20.74 6.04Q20.74 4.98 20.36 4.47L20.36 4.47L20.36 4.47Q19.98 3.97 19.11 3.97L19.11 3.97L19.11 3.97Q18.19 3.97 17.66 4.71L17.66 4.71L17.66 4.71Q17.13 5.46 17.13 6.68L17.13 6.68L17.13 7.82L17.18 10.07L17.99 10.22L17.99 10.57L16.61 10.53L15.22 10.57L15.22 10.22L16.04 10.07L16.09 7.83L16.09 3.31L16.01 0.95L15.11 0.81L15.11 0.45L16.00 0.32L16.00 0.32Q16.32 0.26 16.90 0.10L16.90 0.10L17.16 0.10L17.13 2.01L17.13 4.42L17.13 4.42Q17.60 3.85 18.27 3.48L18.27 3.48L18.27 3.48Q18.93 3.11 19.65 3.11L19.65 3.11L19.65 3.11Q20.60 3.11 21.20 3.72L21.20 3.72L21.20 3.72Q21.80 4.33 21.80 5.33L21.80 5.33ZM29.18 8.34L29.18 8.34L29.18 8.34Q29.18 9.34 28.29 10.04L28.29 10.04L28.29 10.04Q27.40 10.74 26.13 10.74L26.13 10.74L26.13 10.74Q25.38 10.74 24.64 10.50L24.64 10.50L24.64 10.50Q24.29 10.37 23.98 10.21L23.98 10.21L23.98 10.21Q23.66 10.04 23.34 9.83L23.34 9.83L23.88 9.13L24.34 8.42L24.64 8.58L24.35 9.35L24.35 9.35Q24.60 9.57 25.16 9.84L25.16 9.84L25.16 9.84Q25.70 10.07 26.43 10.07L26.43 10.07L26.43 10.07Q27.14 10.07 27.68 9.69L27.68 9.69L27.68 9.69Q28.21 9.31 28.21 8.71L28.21 8.71L28.21 8.71Q28.21 8.14 27.74 7.82L27.74 7.82L27.74 7.82Q27.23 7.49 26.27 7.23L26.27 7.23L26.27 7.23Q25.13 6.90 24.44 6.51L24.44 6.51L24.44 6.51Q23.76 6.11 23.76 5.17L23.76 5.17L23.76 5.17Q23.76 4.22 24.60 3.67L24.60 3.67L24.60 3.67Q25.01 3.40 25.52 3.25L25.52 3.25L25.52 3.25Q26.03 3.11 26.65 3.11L26.65 3.11L26.65 3.11Q27.25 3.11 27.90 3.23L27.90 3.23L27.90 3.23Q28.25 3.30 28.45 3.35L28.45 3.35L28.45 3.35Q28.64 3.41 28.82 3.48L28.82 3.48L28.29 4.91L28 4.81L28.02 4.17L28.02 4.17Q27.70 4.02 27.26 3.90L27.26 3.90L27.26 3.90Q26.98 3.82 26.78 3.79L26.78 3.79L26.78 3.79Q26.58 3.77 26.36 3.77L26.36 3.77L26.36 3.77Q25.58 3.77 25.16 4.06L25.16 4.06L25.16 4.06Q24.74 4.36 24.74 4.83L24.74 4.83L24.74 4.83Q24.74 5.31 25.18 5.65L25.18 5.65L25.18 5.65Q25.64 5.96 26.84 6.27L26.84 6.27L26.84 6.27Q28.04 6.59 28.60 7.08L28.60 7.08L28.60 7.08Q29.18 7.53 29.18 8.34ZM30.12 0.98L30.12 0.98L30.12 0.98Q30.12 0.68 30.32 0.48L30.32 0.48L30.32 0.48Q30.53 0.27 30.86 0.24L30.86 0.24L30.86 0.24Q31.16 0.24 31.37 0.46L31.37 0.46L31.37 0.46Q31.59 0.67 31.59 0.97L31.59 0.97L31.59 0.97Q31.59 1.27 31.39 1.47L31.39 1.47L31.39 1.47Q31.19 1.67 30.86 1.70L30.86 1.70L30.86 1.70Q30.57 1.70 30.34 1.49L30.34 1.49L30.34 1.49Q30.12 1.25 30.12 0.98ZM31.38 5.03L31.38 7.82L31.43 10.07L32.24 10.22L32.24 10.57L30.86 10.53L29.47 10.57L29.47 10.22L30.30 10.07L30.34 7.83L30.34 6.33L30.26 3.97L29.36 3.82L29.36 3.47L29.36 3.47Q29.66 3.43 29.93 3.39L29.93 3.39L29.93 3.39Q30.20 3.35 30.25 3.34L30.25 3.34L31.15 3.11L31.41 3.11L31.38 5.03ZM34.72 6.97L34.72 7.82L34.79 10.07L35.76 10.22L35.76 10.57L34.20 10.53L32.81 10.57L32.81 10.22L33.64 10.07L33.67 7.83L33.67 6.29L33.61 3.93L32.71 3.78L32.71 3.43L32.71 3.43Q32.97 3.43 33.12 3.41L33.12 3.41L33.12 3.41Q33.27 3.40 33.62 3.32L33.62 3.32L33.62 3.32Q33.97 3.25 34.45 3.11L34.45 3.11L34.72 3.11L34.61 5.29L34.61 5.29Q35.09 4.21 35.66 3.65L35.66 3.65L35.66 3.65Q35.92 3.38 36.23 3.25L36.23 3.25L36.23 3.25Q36.53 3.11 36.86 3.11L36.86 3.11L36.86 3.11Q37.00 3.11 37.13 3.13L37.13 3.13L37.13 3.13Q37.26 3.16 37.39 3.20L37.39 3.20L37.39 3.20Q37.53 3.24 37.64 3.32L37.64 3.32L37.64 3.32Q37.38 3.81 37.19 4.25L37.19 4.25L37.19 4.25Q37.15 4.34 37.07 4.57L37.07 4.57L37.07 4.57Q36.98 4.80 36.95 4.91L36.95 4.91L36.95 4.91Q36.71 4.86 36.66 4.79L36.66 4.79L36.66 4.79Q36.66 4.69 36.69 4.66L36.69 4.66L36.69 4.66Q36.69 4.15 36.59 4.10L36.59 4.10L36.59 4.10Q36.50 4.06 36.38 4.06L36.38 4.06L36.38 4.06Q35.72 4.13 35.23 4.96L35.23 4.96L35.23 4.96Q35.01 5.39 34.86 5.90L34.86 5.90L34.86 5.90Q34.72 6.41 34.72 6.97L34.72 6.97Z"></path></g><!----><!----></svg>